<mxfile host="app.diagrams.net" modified="2024-01-15T06:06:07.799Z" agent="Mozilla/5.0 (Macintosh; Intel Mac OS X 10_15_7) AppleWebKit/537.36 (KHTML, like Gecko) Chrome/119.0.0.0 Safari/537.36 OPR/105.0.0.0" etag="tI-yzplA92TAiNrrSprH" version="22.1.18" type="device">
  <diagram name="Page-1" id="FxdQtv5oQYa9k4Vfvytx">
    <mxGraphModel dx="2672" dy="1107" grid="1" gridSize="10" guides="1" tooltips="1" connect="1" arrows="1" fold="1" page="1" pageScale="1" pageWidth="850" pageHeight="1100" math="0" shadow="0">
      <root>
        <mxCell id="0" />
        <mxCell id="1" parent="0" />
        <mxCell id="6zti4YXmc_zQoyBG99vF-22" value="" style="ellipse;whiteSpace=wrap;html=1;" vertex="1" parent="1">
          <mxGeometry x="-85" y="610" width="290" height="150" as="geometry" />
        </mxCell>
        <mxCell id="6zti4YXmc_zQoyBG99vF-14" value="" style="shape=process;whiteSpace=wrap;html=1;backgroundOutline=1;" vertex="1" parent="1">
          <mxGeometry x="260" y="320" width="620" height="620" as="geometry" />
        </mxCell>
        <mxCell id="6zti4YXmc_zQoyBG99vF-1" value="stock name&amp;nbsp;" style="rounded=0;whiteSpace=wrap;html=1;" vertex="1" parent="1">
          <mxGeometry x="520" y="340" width="120" height="60" as="geometry" />
        </mxCell>
        <mxCell id="6zti4YXmc_zQoyBG99vF-3" value="" style="endArrow=classic;html=1;rounded=0;exitX=0;exitY=1;exitDx=0;exitDy=0;" edge="1" parent="1" source="6zti4YXmc_zQoyBG99vF-1" target="6zti4YXmc_zQoyBG99vF-4">
          <mxGeometry width="50" height="50" relative="1" as="geometry">
            <mxPoint x="370" y="540" as="sourcePoint" />
            <mxPoint x="400" y="480" as="targetPoint" />
          </mxGeometry>
        </mxCell>
        <mxCell id="6zti4YXmc_zQoyBG99vF-4" value="run finRL and analysis&lt;br&gt;&amp;nbsp;" style="rounded=0;whiteSpace=wrap;html=1;" vertex="1" parent="1">
          <mxGeometry x="340" y="450" width="120" height="60" as="geometry" />
        </mxCell>
        <mxCell id="6zti4YXmc_zQoyBG99vF-5" value="sentiment anslysis; twitter and reddit" style="rounded=0;whiteSpace=wrap;html=1;" vertex="1" parent="1">
          <mxGeometry x="670" y="450" width="120" height="60" as="geometry" />
        </mxCell>
        <mxCell id="6zti4YXmc_zQoyBG99vF-6" value="" style="endArrow=classic;html=1;rounded=0;exitX=1;exitY=1;exitDx=0;exitDy=0;entryX=0;entryY=0;entryDx=0;entryDy=0;" edge="1" parent="1" source="6zti4YXmc_zQoyBG99vF-1" target="6zti4YXmc_zQoyBG99vF-5">
          <mxGeometry width="50" height="50" relative="1" as="geometry">
            <mxPoint x="560" y="780" as="sourcePoint" />
            <mxPoint x="610" y="730" as="targetPoint" />
          </mxGeometry>
        </mxCell>
        <mxCell id="6zti4YXmc_zQoyBG99vF-7" value="" style="endArrow=classic;html=1;rounded=0;exitX=1;exitY=1;exitDx=0;exitDy=0;entryX=0;entryY=0;entryDx=0;entryDy=0;" edge="1" parent="1" source="6zti4YXmc_zQoyBG99vF-4" target="6zti4YXmc_zQoyBG99vF-9">
          <mxGeometry width="50" height="50" relative="1" as="geometry">
            <mxPoint x="560" y="780" as="sourcePoint" />
            <mxPoint x="520" y="560" as="targetPoint" />
          </mxGeometry>
        </mxCell>
        <mxCell id="6zti4YXmc_zQoyBG99vF-8" value="" style="endArrow=classic;html=1;rounded=0;exitX=0;exitY=1;exitDx=0;exitDy=0;entryX=1;entryY=0;entryDx=0;entryDy=0;" edge="1" parent="1" source="6zti4YXmc_zQoyBG99vF-5" target="6zti4YXmc_zQoyBG99vF-9">
          <mxGeometry width="50" height="50" relative="1" as="geometry">
            <mxPoint x="560" y="780" as="sourcePoint" />
            <mxPoint x="640" y="560" as="targetPoint" />
          </mxGeometry>
        </mxCell>
        <mxCell id="6zti4YXmc_zQoyBG99vF-9" value="results imputted in openai api and use to formulate a report&amp;nbsp;" style="rounded=0;whiteSpace=wrap;html=1;" vertex="1" parent="1">
          <mxGeometry x="510" y="560" width="120" height="60" as="geometry" />
        </mxCell>
        <mxCell id="6zti4YXmc_zQoyBG99vF-10" value="" style="endArrow=classic;html=1;rounded=0;exitX=0.5;exitY=1;exitDx=0;exitDy=0;" edge="1" parent="1" source="6zti4YXmc_zQoyBG99vF-9">
          <mxGeometry width="50" height="50" relative="1" as="geometry">
            <mxPoint x="560" y="780" as="sourcePoint" />
            <mxPoint x="570" y="670" as="targetPoint" />
          </mxGeometry>
        </mxCell>
        <mxCell id="6zti4YXmc_zQoyBG99vF-11" value="stored in live database" style="rounded=1;whiteSpace=wrap;html=1;" vertex="1" parent="1">
          <mxGeometry x="510" y="670" width="120" height="60" as="geometry" />
        </mxCell>
        <mxCell id="6zti4YXmc_zQoyBG99vF-12" value="" style="endArrow=classic;html=1;rounded=0;exitX=0.5;exitY=1;exitDx=0;exitDy=0;" edge="1" parent="1" source="6zti4YXmc_zQoyBG99vF-11">
          <mxGeometry width="50" height="50" relative="1" as="geometry">
            <mxPoint x="580" y="860" as="sourcePoint" />
            <mxPoint x="570" y="810" as="targetPoint" />
          </mxGeometry>
        </mxCell>
        <mxCell id="6zti4YXmc_zQoyBG99vF-13" value="update sent to frontend&lt;br&gt;" style="rounded=0;whiteSpace=wrap;html=1;" vertex="1" parent="1">
          <mxGeometry x="510" y="810" width="120" height="60" as="geometry" />
        </mxCell>
        <mxCell id="6zti4YXmc_zQoyBG99vF-15" value="CRUD Everyday at 11 am&amp;nbsp; using&amp;nbsp; firbase function&lt;br&gt;" style="text;html=1;strokeColor=none;fillColor=none;align=center;verticalAlign=middle;whiteSpace=wrap;rounded=0;" vertex="1" parent="1">
          <mxGeometry x="325" y="340" width="130" height="30" as="geometry" />
        </mxCell>
        <mxCell id="6zti4YXmc_zQoyBG99vF-16" value="if user has paid account every 24 hour we send noti with results&lt;br&gt;" style="whiteSpace=wrap;html=1;" vertex="1" parent="1">
          <mxGeometry x="-70" y="655" width="120" height="60" as="geometry" />
        </mxCell>
        <mxCell id="6zti4YXmc_zQoyBG99vF-17" value="not paid: 1 token to use once&amp;nbsp;" style="whiteSpace=wrap;html=1;" vertex="1" parent="1">
          <mxGeometry x="60" y="655" width="120" height="60" as="geometry" />
        </mxCell>
        <mxCell id="6zti4YXmc_zQoyBG99vF-20" value="user Schema&lt;br&gt;" style="rhombus;whiteSpace=wrap;html=1;" vertex="1" parent="1">
          <mxGeometry x="-260" y="610" width="130" height="80" as="geometry" />
        </mxCell>
        <mxCell id="6zti4YXmc_zQoyBG99vF-23" value="Tokens&lt;br&gt;" style="text;html=1;strokeColor=none;fillColor=none;align=center;verticalAlign=middle;whiteSpace=wrap;rounded=0;" vertex="1" parent="1">
          <mxGeometry x="30" y="625" width="60" height="30" as="geometry" />
        </mxCell>
        <mxCell id="6zti4YXmc_zQoyBG99vF-24" value="user Info - from google use for creditation&lt;br&gt;" style="rounded=0;whiteSpace=wrap;html=1;" vertex="1" parent="1">
          <mxGeometry x="-260" y="730" width="120" height="60" as="geometry" />
        </mxCell>
        <mxCell id="6zti4YXmc_zQoyBG99vF-25" value="" style="endArrow=classic;html=1;rounded=0;exitX=0.5;exitY=1;exitDx=0;exitDy=0;entryX=0.5;entryY=0;entryDx=0;entryDy=0;" edge="1" parent="1" target="6zti4YXmc_zQoyBG99vF-24">
          <mxGeometry width="50" height="50" relative="1" as="geometry">
            <mxPoint x="-200" y="690" as="sourcePoint" />
            <mxPoint x="-215" y="790" as="targetPoint" />
          </mxGeometry>
        </mxCell>
        <mxCell id="6zti4YXmc_zQoyBG99vF-26" value="" style="endArrow=classic;html=1;rounded=0;entryX=0;entryY=0.5;entryDx=0;entryDy=0;exitX=1;exitY=0.5;exitDx=0;exitDy=0;" edge="1" parent="1" target="6zti4YXmc_zQoyBG99vF-22">
          <mxGeometry width="50" height="50" relative="1" as="geometry">
            <mxPoint x="-135" y="650" as="sourcePoint" />
            <mxPoint x="-215" y="790" as="targetPoint" />
          </mxGeometry>
        </mxCell>
        <mxCell id="6zti4YXmc_zQoyBG99vF-36" style="edgeStyle=orthogonalEdgeStyle;rounded=0;orthogonalLoop=1;jettySize=auto;html=1;exitX=0;exitY=0.5;exitDx=0;exitDy=0;" edge="1" parent="1" source="6zti4YXmc_zQoyBG99vF-27">
          <mxGeometry relative="1" as="geometry">
            <mxPoint x="-100" y="100" as="targetPoint" />
          </mxGeometry>
        </mxCell>
        <mxCell id="6zti4YXmc_zQoyBG99vF-27" value="Website layout&lt;br&gt;" style="shape=hexagon;perimeter=hexagonPerimeter2;whiteSpace=wrap;html=1;fixedSize=1;" vertex="1" parent="1">
          <mxGeometry x="30" y="10" width="120" height="80" as="geometry" />
        </mxCell>
        <mxCell id="6zti4YXmc_zQoyBG99vF-28" value="about, how it works&lt;br&gt;" style="rounded=1;whiteSpace=wrap;html=1;" vertex="1" parent="1">
          <mxGeometry x="10" y="120" width="120" height="60" as="geometry" />
        </mxCell>
        <mxCell id="6zti4YXmc_zQoyBG99vF-29" value="terms page&lt;br&gt;" style="rounded=1;whiteSpace=wrap;html=1;" vertex="1" parent="1">
          <mxGeometry x="210" y="20" width="120" height="60" as="geometry" />
        </mxCell>
        <mxCell id="6zti4YXmc_zQoyBG99vF-30" value="pay page for pay info" style="rounded=1;whiteSpace=wrap;html=1;" vertex="1" parent="1">
          <mxGeometry x="170" y="120" width="120" height="60" as="geometry" />
        </mxCell>
        <mxCell id="6zti4YXmc_zQoyBG99vF-32" value="" style="endArrow=classic;html=1;rounded=0;entryX=0;entryY=0;entryDx=0;entryDy=0;" edge="1" parent="1" target="6zti4YXmc_zQoyBG99vF-30">
          <mxGeometry width="50" height="50" relative="1" as="geometry">
            <mxPoint x="130" y="90" as="sourcePoint" />
            <mxPoint x="180" y="40" as="targetPoint" />
          </mxGeometry>
        </mxCell>
        <mxCell id="6zti4YXmc_zQoyBG99vF-50" value="not signed in&lt;br&gt;" style="edgeLabel;html=1;align=center;verticalAlign=middle;resizable=0;points=[];" vertex="1" connectable="0" parent="6zti4YXmc_zQoyBG99vF-32">
          <mxGeometry x="-0.128" y="3" relative="1" as="geometry">
            <mxPoint as="offset" />
          </mxGeometry>
        </mxCell>
        <mxCell id="6zti4YXmc_zQoyBG99vF-33" value="" style="edgeStyle=none;orthogonalLoop=1;jettySize=auto;html=1;rounded=0;exitX=1;exitY=0.5;exitDx=0;exitDy=0;entryX=0;entryY=0.75;entryDx=0;entryDy=0;" edge="1" parent="1" source="6zti4YXmc_zQoyBG99vF-27" target="6zti4YXmc_zQoyBG99vF-29">
          <mxGeometry width="100" relative="1" as="geometry">
            <mxPoint x="130" y="50" as="sourcePoint" />
            <mxPoint x="220" y="50" as="targetPoint" />
            <Array as="points" />
          </mxGeometry>
        </mxCell>
        <mxCell id="6zti4YXmc_zQoyBG99vF-34" value="" style="endArrow=classic;html=1;rounded=0;exitX=0.5;exitY=1;exitDx=0;exitDy=0;" edge="1" parent="1" source="6zti4YXmc_zQoyBG99vF-27" target="6zti4YXmc_zQoyBG99vF-28">
          <mxGeometry width="50" height="50" relative="1" as="geometry">
            <mxPoint x="400" y="500" as="sourcePoint" />
            <mxPoint x="450" y="450" as="targetPoint" />
          </mxGeometry>
        </mxCell>
        <mxCell id="6zti4YXmc_zQoyBG99vF-37" value="results page&amp;nbsp;" style="rounded=0;whiteSpace=wrap;html=1;" vertex="1" parent="1">
          <mxGeometry x="-160" y="105" width="120" height="60" as="geometry" />
        </mxCell>
        <mxCell id="6zti4YXmc_zQoyBG99vF-38" value="" style="endArrow=classic;html=1;rounded=0;exitX=0.5;exitY=1;exitDx=0;exitDy=0;" edge="1" parent="1" source="6zti4YXmc_zQoyBG99vF-37" target="6zti4YXmc_zQoyBG99vF-39">
          <mxGeometry width="50" height="50" relative="1" as="geometry">
            <mxPoint x="30" y="360" as="sourcePoint" />
            <mxPoint x="50" y="350" as="targetPoint" />
            <Array as="points" />
          </mxGeometry>
        </mxCell>
        <mxCell id="6zti4YXmc_zQoyBG99vF-58" value="not signed in&lt;br&gt;&lt;br&gt;" style="edgeLabel;html=1;align=center;verticalAlign=middle;resizable=0;points=[];" vertex="1" connectable="0" parent="6zti4YXmc_zQoyBG99vF-38">
          <mxGeometry x="-0.2082" y="1" relative="1" as="geometry">
            <mxPoint as="offset" />
          </mxGeometry>
        </mxCell>
        <mxCell id="6zti4YXmc_zQoyBG99vF-39" value="sign in prompt" style="rounded=0;whiteSpace=wrap;html=1;" vertex="1" parent="1">
          <mxGeometry x="-170" y="210" width="120" height="60" as="geometry" />
        </mxCell>
        <mxCell id="6zti4YXmc_zQoyBG99vF-40" value="s" style="endArrow=classic;html=1;rounded=0;exitX=0.5;exitY=1;exitDx=0;exitDy=0;entryX=0;entryY=1;entryDx=0;entryDy=0;" edge="1" parent="1" source="6zti4YXmc_zQoyBG99vF-39" target="6zti4YXmc_zQoyBG99vF-39">
          <mxGeometry width="50" height="50" relative="1" as="geometry">
            <mxPoint x="220" y="370" as="sourcePoint" />
            <mxPoint x="-110" y="330" as="targetPoint" />
            <mxPoint as="offset" />
          </mxGeometry>
        </mxCell>
        <mxCell id="6zti4YXmc_zQoyBG99vF-41" value="daily results max 1 week data hold on databse for analyis report&lt;br&gt;" style="rounded=1;whiteSpace=wrap;html=1;" vertex="1" parent="1">
          <mxGeometry x="-260" y="340" width="120" height="60" as="geometry" />
        </mxCell>
        <mxCell id="6zti4YXmc_zQoyBG99vF-42" value="" style="endArrow=classic;html=1;rounded=0;entryX=0.5;entryY=0;entryDx=0;entryDy=0;" edge="1" parent="1" target="6zti4YXmc_zQoyBG99vF-41">
          <mxGeometry width="50" height="50" relative="1" as="geometry">
            <mxPoint x="-170" y="270" as="sourcePoint" />
            <mxPoint x="270" y="320" as="targetPoint" />
          </mxGeometry>
        </mxCell>
        <mxCell id="6zti4YXmc_zQoyBG99vF-44" value="Paid user&lt;br&gt;" style="edgeLabel;html=1;align=center;verticalAlign=middle;resizable=0;points=[];" vertex="1" connectable="0" parent="6zti4YXmc_zQoyBG99vF-42">
          <mxGeometry x="-0.1552" y="-1" relative="1" as="geometry">
            <mxPoint as="offset" />
          </mxGeometry>
        </mxCell>
        <mxCell id="6zti4YXmc_zQoyBG99vF-45" value="" style="endArrow=classic;html=1;rounded=0;exitX=1;exitY=1;exitDx=0;exitDy=0;" edge="1" parent="1" source="6zti4YXmc_zQoyBG99vF-39">
          <mxGeometry width="50" height="50" relative="1" as="geometry">
            <mxPoint x="220" y="370" as="sourcePoint" />
            <mxPoint x="-40" y="340" as="targetPoint" />
          </mxGeometry>
        </mxCell>
        <mxCell id="6zti4YXmc_zQoyBG99vF-47" value="Unpaid" style="edgeLabel;html=1;align=center;verticalAlign=middle;resizable=0;points=[];" vertex="1" connectable="0" parent="6zti4YXmc_zQoyBG99vF-45">
          <mxGeometry x="-0.148" y="-1" relative="1" as="geometry">
            <mxPoint as="offset" />
          </mxGeometry>
        </mxCell>
        <mxCell id="6zti4YXmc_zQoyBG99vF-46" value="only shown the result for the day they logged in" style="rounded=1;whiteSpace=wrap;html=1;" vertex="1" parent="1">
          <mxGeometry x="-100" y="340" width="120" height="60" as="geometry" />
        </mxCell>
        <mxCell id="6zti4YXmc_zQoyBG99vF-52" value="" style="edgeStyle=none;orthogonalLoop=1;jettySize=auto;html=1;rounded=0;exitX=1;exitY=1;exitDx=0;exitDy=0;entryX=1;entryY=0.25;entryDx=0;entryDy=0;" edge="1" parent="1" source="6zti4YXmc_zQoyBG99vF-30" target="6zti4YXmc_zQoyBG99vF-30">
          <mxGeometry width="100" relative="1" as="geometry">
            <mxPoint x="90" y="220" as="sourcePoint" />
            <mxPoint x="350" y="150" as="targetPoint" />
            <Array as="points">
              <mxPoint x="340" y="150" />
            </Array>
          </mxGeometry>
        </mxCell>
        <mxCell id="6zti4YXmc_zQoyBG99vF-53" value="no pay&lt;br&gt;" style="edgeLabel;html=1;align=center;verticalAlign=middle;resizable=0;points=[];" vertex="1" connectable="0" parent="6zti4YXmc_zQoyBG99vF-52">
          <mxGeometry x="-0.2054" y="-1" relative="1" as="geometry">
            <mxPoint as="offset" />
          </mxGeometry>
        </mxCell>
        <mxCell id="6zti4YXmc_zQoyBG99vF-56" value="" style="edgeStyle=none;orthogonalLoop=1;jettySize=auto;html=1;rounded=0;entryX=1;entryY=1;entryDx=0;entryDy=0;exitX=0.567;exitY=0.967;exitDx=0;exitDy=0;exitPerimeter=0;" edge="1" parent="1" source="6zti4YXmc_zQoyBG99vF-63" target="6zti4YXmc_zQoyBG99vF-41">
          <mxGeometry width="100" relative="1" as="geometry">
            <mxPoint x="180" y="330" as="sourcePoint" />
            <mxPoint x="-50" y="570" as="targetPoint" />
            <Array as="points">
              <mxPoint x="120" y="480" />
            </Array>
          </mxGeometry>
        </mxCell>
        <mxCell id="6zti4YXmc_zQoyBG99vF-57" value="paid user&lt;br&gt;" style="edgeLabel;html=1;align=center;verticalAlign=middle;resizable=0;points=[];" vertex="1" connectable="0" parent="6zti4YXmc_zQoyBG99vF-56">
          <mxGeometry x="-0.5205" y="-3" relative="1" as="geometry">
            <mxPoint as="offset" />
          </mxGeometry>
        </mxCell>
        <mxCell id="6zti4YXmc_zQoyBG99vF-59" value="" style="endArrow=classic;html=1;rounded=0;exitX=0;exitY=0.5;exitDx=0;exitDy=0;entryX=0.5;entryY=0;entryDx=0;entryDy=0;" edge="1" parent="1" source="6zti4YXmc_zQoyBG99vF-37" target="6zti4YXmc_zQoyBG99vF-41">
          <mxGeometry width="50" height="50" relative="1" as="geometry">
            <mxPoint x="400" y="500" as="sourcePoint" />
            <mxPoint x="450" y="450" as="targetPoint" />
            <Array as="points">
              <mxPoint x="-250" y="240" />
            </Array>
          </mxGeometry>
        </mxCell>
        <mxCell id="6zti4YXmc_zQoyBG99vF-60" value="signed in&amp;nbsp;&lt;br&gt;" style="edgeLabel;html=1;align=center;verticalAlign=middle;resizable=0;points=[];" vertex="1" connectable="0" parent="6zti4YXmc_zQoyBG99vF-59">
          <mxGeometry x="-0.4952" relative="1" as="geometry">
            <mxPoint as="offset" />
          </mxGeometry>
        </mxCell>
        <mxCell id="6zti4YXmc_zQoyBG99vF-63" value="stripe payment&amp;nbsp; gateway&lt;br&gt;" style="whiteSpace=wrap;html=1;" vertex="1" parent="1">
          <mxGeometry x="140" y="240" width="120" height="60" as="geometry" />
        </mxCell>
        <mxCell id="6zti4YXmc_zQoyBG99vF-64" value="" style="endArrow=classic;html=1;rounded=0;exitX=0.5;exitY=1;exitDx=0;exitDy=0;" edge="1" parent="1" source="6zti4YXmc_zQoyBG99vF-30" target="6zti4YXmc_zQoyBG99vF-63">
          <mxGeometry width="50" height="50" relative="1" as="geometry">
            <mxPoint x="400" y="390" as="sourcePoint" />
            <mxPoint x="450" y="340" as="targetPoint" />
          </mxGeometry>
        </mxCell>
        <mxCell id="6zti4YXmc_zQoyBG99vF-68" value="" style="endArrow=classic;html=1;rounded=0;" edge="1" parent="1">
          <mxGeometry width="50" height="50" relative="1" as="geometry">
            <mxPoint x="-260" y="650" as="sourcePoint" />
            <mxPoint x="-340" y="680" as="targetPoint" />
          </mxGeometry>
        </mxCell>
        <mxCell id="6zti4YXmc_zQoyBG99vF-69" value="initial report&amp;nbsp;" style="rounded=1;whiteSpace=wrap;html=1;" vertex="1" parent="1">
          <mxGeometry x="-420" y="680" width="120" height="60" as="geometry" />
        </mxCell>
      </root>
    </mxGraphModel>
  </diagram>
</mxfile>
